<?xml version="1.0" encoding="UTF-8"?>
<svg width="356px" height="70px" viewBox="0 0 356 70" version="1.1" xmlns="http://www.w3.org/2000/svg" xmlns:xlink="http://www.w3.org/1999/xlink">
    <!-- Generator: Sketch 57.1 (83088) - https://sketch.com -->
    <title>Logo Mark - Full</title>
    <desc>Created with Sketch.</desc>
    <defs>
        <linearGradient x1="0%" y1="0%" x2="100%" y2="100%" id="linearGradient-1">
            <stop stop-color="#DF206C" offset="0%"></stop>
            <stop stop-color="#DF916C" offset="100%"></stop>
        </linearGradient>
    </defs>
    <g id="Landing-Page" stroke="none" stroke-width="1" fill="none" fill-rule="evenodd">
        <g transform="translate(-233.000000, -233.000000)" id="Branding-Grouping">
            <g transform="translate(233.000000, 233.000000)">
                <g id="Logo-Mark---Full">
                    <g id="Logo-Mark" fill="url(#linearGradient-1)">
                        <path d="M59.9069486,0 L37.7403021,0 L37.7403021,15.5860242 C37.7403021,18.3850876 39.8483384,20.8292266 42.644713,21.0104532 C45.7045921,21.2083505 48.2482175,18.7846465 48.2482175,15.7661752 L48.2482175,10.5106042 L54.7820544,10.5106042 C57.035287,10.5106042 58.8583082,12.3347009 58.8583082,14.5847069 L58.8583082,40.6646647 C58.8583082,44.6365921 54.0560725,46.6263202 51.2489426,43.8170393 L21.1610272,13.7301994 C19.972568,12.5422779 20.8114804,10.5106042 22.4946828,10.5106042 L28.8994562,10.5106042 L28.8994562,0 L9.43238671,0 C4.22145015,0 0,4.22360121 0,9.43453776 L0,28.9586103 L10.5079154,28.9586103 L10.5079154,22.4957583 C10.5079154,20.8157825 12.5406647,19.974719 13.7291239,21.1626405 L43.8170393,51.2494804 C46.6241692,54.0582236 44.6344411,58.860997 40.6603625,58.860997 L14.5841692,58.860997 C12.3309366,58.860997 10.5079154,57.0369003 10.5079154,54.7868943 L10.5079154,48.2541329 L15.5844109,48.2541329 C18.3807855,48.2541329 20.8276133,46.1417946 21.0104532,43.3486465 C21.2040483,40.2876918 18.7841088,37.7435287 15.7618731,37.7435287 L0,37.7435287 L0,59.910713 C0,65.1356314 4.23220544,69.3716012 9.45927492,69.3716012 L59.9177039,69.3716012 C65.1393958,69.3716012 69.3716012,65.1393958 69.3716012,59.9182417 L69.3716012,9.46142598 C69.3716012,4.23596979 65.1340181,0 59.9069486,0" id="Art"></path>
                    </g>
                    <path d="M127.122115,37.1638187 L123.174924,27.3345619 L119.222356,37.1638187 L127.122115,37.1638187 Z M129.66574,43.5696677 L116.678731,43.5696677 L114.264169,49.5377764 L105.401813,49.5377764 L118.958852,18.8217523 L127.52006,18.8217523 L141.120121,49.5377764 L132.080302,49.5377764 L129.66574,43.5696677 L129.66574,43.5696677 Z" id="Fill-30" fill="#323232"></path>
                    <polyline id="Fill-31" fill="#323232" points="181.409426 18.8217523 181.409426 49.5377764 174.25716 49.5377764 160.700121 33.1703807 160.700121 49.5377764 152.187311 49.5377764 152.187311 18.8217523 159.339577 18.8217523 172.896616 35.189148 172.896616 18.8217523 181.409426 18.8217523"></polyline>
                    <path d="M202.898489,48.1879879 C200.338731,46.8274441 198.327492,44.9339758 196.864773,42.505432 C195.402054,40.0779637 194.670695,37.3278369 194.670695,34.2561269 C194.670695,31.1844169 195.402054,28.4353656 196.864773,26.0068218 C198.327492,23.5793535 200.338731,21.6848097 202.898489,20.3242659 C205.458248,18.9637221 208.346042,18.2839879 211.561873,18.2839879 C214.374381,18.2839879 216.901873,18.7819577 219.155106,19.7757462 C221.408338,20.7706103 223.279758,22.20429 224.769366,24.0762477 L219.241148,29.0785317 C217.25142,26.6801027 214.836858,25.4803505 212.00284,25.4803505 C210.33577,25.4803505 208.851541,25.8460302 207.550151,26.5773897 C206.248761,27.3087492 205.237764,28.3401813 204.522538,29.6706103 C203.801934,31.0021148 203.447009,32.5304411 203.447009,34.2561269 C203.447009,35.9823505 203.801934,37.5106767 204.522538,38.8416435 C205.237764,40.173148 206.248761,41.2040423 207.550151,41.9354018 C208.851541,42.6667613 210.33577,43.0319033 212.00284,43.0319033 C214.836858,43.0319033 217.25142,41.8326888 219.241148,39.4337221 L224.769366,44.436006 C223.279758,46.3085015 221.408338,47.7421813 219.155106,48.7365076 C216.901873,49.7308338 214.374381,50.2282659 211.561873,50.2282659 C208.346042,50.2282659 205.458248,49.5485317 202.898489,48.1879879" id="Fill-32" fill="#323232"></path>
                    <polyline id="Fill-33" fill="#323232" points="266.919335 18.8217523 266.919335 49.5377764 258.229063 49.5377764 258.229063 37.5585378 246.382115 37.5585378 246.382115 49.5377764 237.691843 49.5377764 237.691843 18.8217523 246.382115 18.8217523 246.382115 30.3621752 258.229063 30.3621752 258.229063 18.8217523 266.919335 18.8217523"></polyline>
                    <path d="M301.45994,41.9354018 C302.712931,41.2040423 303.707795,40.173148 304.439154,38.8416435 C305.170514,37.5106767 305.536193,35.9823505 305.536193,34.2561269 C305.536193,32.5304411 305.170514,31.0021148 304.439154,29.6706103 C303.707795,28.3401813 302.712931,27.3087492 301.45994,26.5773897 C300.201571,25.8460302 298.798006,25.4803505 297.243867,25.4803505 C295.695106,25.4803505 294.291541,25.8460302 293.033172,26.5773897 C291.774804,27.3087492 290.77994,28.3401813 290.04858,29.6706103 C289.317221,31.0021148 288.951541,32.5304411 288.951541,34.2561269 C288.951541,35.9823505 289.317221,37.5106767 290.04858,38.8416435 C290.77994,40.173148 291.774804,41.2040423 293.033172,41.9354018 C294.291541,42.6667613 295.695106,43.0319033 297.243867,43.0319033 C298.798006,43.0319033 300.201571,42.6667613 301.45994,41.9354018 Z M288.489063,48.1659396 C285.902417,46.7914139 283.869668,44.8898792 282.390816,42.4613353 C280.911964,40.0338671 280.175227,37.2987976 280.175227,34.2561269 C280.175227,31.213994 280.911964,28.4789245 282.390816,26.0509184 C283.869668,23.6229124 285.902417,21.7213776 288.489063,20.3463142 C291.081088,18.9717885 293.99577,18.2839879 297.243867,18.2839879 C300.491964,18.2839879 303.412024,18.9717885 305.998671,20.3463142 C308.590695,21.7213776 310.618066,23.6229124 312.096918,26.0509184 C313.57577,28.4789245 314.312508,31.213994 314.312508,34.2561269 C314.312508,37.2987976 313.57577,40.0338671 312.096918,42.4613353 C310.618066,44.8898792 308.590695,46.7914139 305.998671,48.1659396 C303.412024,49.5415408 300.491964,50.2282659 297.243867,50.2282659 C293.99577,50.2282659 291.081088,49.5415408 288.489063,48.1659396 L288.489063,48.1659396 Z" id="Fill-34" fill="#323232"></path>
                    <path d="M345.051118,26.8521873 C344.142296,26.0622115 342.797885,25.6669547 341.012508,25.6669547 L336.183384,25.6669547 L336.183384,34.662139 L341.012508,34.662139 C342.797885,34.662139 344.142296,34.2749486 345.051118,33.4994924 C345.954562,32.724574 346.411662,31.6205438 346.411662,30.186864 C346.411662,28.7537221 345.954562,27.6416254 345.051118,26.8521873 Z M340.926465,41.3761269 L336.183384,41.3761269 L336.183384,49.5377764 L327.498489,49.5377764 L327.498489,18.8217523 L341.539517,18.8217523 C344.319758,18.8217523 346.728943,19.2826163 348.777825,20.2043444 C350.826707,21.1255347 352.407734,22.4419819 353.520906,24.153148 C354.628701,25.864852 355.187976,27.8760906 355.187976,30.186864 C355.187976,32.4099819 354.666344,34.3480846 353.628459,36.0006344 C352.590574,37.6537221 351.106344,38.9481208 349.17577,39.8843686 L355.801027,49.5377764 L346.497704,49.5377764 L340.926465,41.3761269 L340.926465,41.3761269 Z" id="Fill-35" fill="#323232"></path>
                </g>
            </g>
        </g>
    </g>
</svg>