<svg width="379px" height="195px" viewBox="0 0 379 195" version="1.1" xmlns="http://www.w3.org/2000/svg" xmlns:xlink="http://www.w3.org/1999/xlink">
  <defs>
    <linearGradient x1="0%" y1="0%" x2="100%" y2="100%" id="linearGradient-1">
      <stop stop-color="#DF206C" offset="0%"></stop>
      <stop stop-color="#DF916C" offset="100%"></stop>
    </linearGradient>
  </defs>
  <g id="Wireframes" stroke="none" stroke-width="1" fill="none" fill-rule="evenodd">
    <g id="Landing-Page-Teaser" transform="translate(-531.000000, -151.000000)">
      <g id="Branding-Grouping" transform="translate(473.000000, 130.000000)">
        <g id="Logo-Mark---Full-Stacked">
          <g id="Group" transform="translate(57.967578, 21.237700)">
            <path d="M32.81676,174.596869 L26.8530309,159.761151 L20.8811768,174.596869 L32.81676,174.596869 Z M36.6598715,184.265491 L17.0380653,184.265491 L13.3899531,193.273412 L0,193.273412 L20.4830532,146.912403 L33.4180079,146.912403 L53.9660609,193.273412 L40.3079837,193.273412 L36.6598715,184.265491 L36.6598715,184.265491 Z" id="Fill-30-Copy" fill="#323232"></path>
            <polyline id="Fill-31-Copy" fill="#323232" points="114.838348 146.912403 114.838348 193.273412 104.032135 193.273412 83.5490822 168.569402 83.5490822 193.273412 70.6872523 193.273412 70.6872523 146.912403 81.4934644 146.912403 101.976518 171.616414 101.976518 146.912403 114.838348 146.912403"></polyline>
            <path d="M147.305734,191.236119 C143.438247,189.182592 140.399508,186.324699 138.189516,182.659194 C135.979523,178.995312 134.874527,174.844428 134.874527,170.208165 C134.874527,165.571902 135.979523,161.422641 138.189516,157.757136 C140.399508,154.093254 143.438247,151.233738 147.305734,149.180211 C151.17322,147.126684 155.53633,146.100733 160.395063,146.100733 C164.644423,146.100733 168.46316,146.85234 171.867523,148.352307 C175.271886,149.853898 178.099376,152.017812 180.349993,154.843238 L171.997522,162.393399 C168.991283,158.773348 165.343171,156.96251 161.061311,156.96251 C158.542569,156.96251 156.300077,157.514446 154.333834,158.618319 C152.367591,159.722191 150.840096,161.278975 149.759475,163.287049 C148.670729,165.296745 148.134481,167.603514 148.134481,170.208165 C148.134481,172.813628 148.670729,175.120396 149.759475,177.129281 C150.840096,179.138978 152.367591,180.694951 154.333834,181.798823 C156.300077,182.902695 158.542569,183.45382 161.061311,183.45382 C165.343171,183.45382 168.991283,181.643794 171.997522,178.022931 L180.349993,185.573092 C178.099376,188.39933 175.271886,190.563244 171.867523,192.064023 C168.46316,193.564802 164.644423,194.315598 160.395063,194.315598 C155.53633,194.315598 151.17322,193.289646 147.305734,191.236119" id="Fill-32-Copy" fill="#323232"></path>
            <polyline id="Fill-33-Copy" fill="#323232" points="244.03352 146.912403 244.03352 193.273412 230.903566 193.273412 230.903566 175.192635 213.004254 175.192635 213.004254 193.273412 199.8743 193.273412 199.8743 146.912403 213.004254 146.912403 213.004254 164.330857 230.903566 164.330857 230.903566 146.912403 244.03352 146.912403"></polyline>
            <path d="M296.220212,181.798823 C298.11333,180.694951 299.61645,179.138978 300.721446,177.129281 C301.826442,175.120396 302.37894,172.813628 302.37894,170.208165 C302.37894,167.603514 301.826442,165.296745 300.721446,163.287049 C299.61645,161.278975 298.11333,159.722191 296.220212,158.618319 C294.318969,157.514446 292.198351,156.96251 289.850234,156.96251 C287.510242,156.96251 285.389625,157.514446 283.488381,158.618319 C281.587138,159.722191 280.084018,161.278975 278.979022,163.287049 C277.874026,165.296745 277.321528,167.603514 277.321528,170.208165 C277.321528,172.813628 277.874026,175.120396 278.979022,177.129281 C280.084018,179.138978 281.587138,180.694951 283.488381,181.798823 C285.389625,182.902695 287.510242,183.45382 289.850234,183.45382 C292.198351,183.45382 294.318969,182.902695 296.220212,181.798823 Z M276.622781,191.20284 C272.714669,189.12821 269.64343,186.258142 267.409063,182.592637 C265.174696,178.928755 264.061575,174.800598 264.061575,170.208165 C264.061575,165.616544 265.174696,161.488386 267.409063,157.823693 C269.64343,154.159 272.714669,151.288932 276.622781,149.21349 C280.539017,147.138859 284.942751,146.100733 289.850234,146.100733 C294.757717,146.100733 299.169577,147.138859 303.077688,149.21349 C306.993924,151.288932 310.057038,154.159 312.291406,157.823693 C314.525773,161.488386 315.638894,165.616544 315.638894,170.208165 C315.638894,174.800598 314.525773,178.928755 312.291406,182.592637 C310.057038,186.258142 306.993924,189.12821 303.077688,191.20284 C299.169577,193.279094 294.757717,194.315598 289.850234,194.315598 C284.942751,194.315598 280.539017,193.279094 276.622781,191.20284 L276.622781,191.20284 Z" id="Fill-34-Copy" fill="#323232"></path>
            <path d="M362.081231,159.033082 C360.708111,157.840738 358.676868,157.24416 355.979377,157.24416 L348.683153,157.24416 L348.683153,170.820976 L355.979377,170.820976 C358.676868,170.820976 360.708111,170.236574 362.081231,169.066144 C363.446226,167.896527 364.136849,166.230167 364.136849,164.066253 C364.136849,161.90315 363.446226,160.224615 362.081231,159.033082 Z M355.849378,180.954686 L348.683153,180.954686 L348.683153,193.273412 L335.561324,193.273412 L335.561324,146.912403 L356.775625,146.912403 C360.976235,146.912403 364.616222,147.608005 367.711836,148.999209 C370.80745,150.389601 373.196192,152.376571 374.878061,154.959307 C376.551805,157.542855 377.396802,160.578503 377.396802,164.066253 C377.396802,167.421699 376.60868,170.346961 375.040561,172.841225 C373.472441,175.336301 371.229949,177.289992 368.313084,178.703111 L378.323049,193.273412 L364.266848,193.273412 L355.849378,180.954686 L355.849378,180.954686 Z" id="Fill-35-Copy" fill="#323232"></path>
            <g id="Logo-Mark" transform="translate(134.874527, 0.000000)" fill="url(#linearGradient-1)">
              <path d="M90.6954058,0 L57.1364774,0 L57.1364774,23.5962742 C57.1364774,27.8338827 60.3279136,31.5341576 64.5614514,31.8085234 C69.1939187,32.1081276 73.0448098,28.4387901 73.0448098,23.8690117 L73.0448098,15.9124031 L82.9366337,15.9124031 C86.3478882,15.9124031 89.1078292,18.6739724 89.1078292,22.080342 L89.1078292,61.563781 C89.1078292,67.5770329 81.8375421,70.5893579 77.5877215,66.3362807 L32.0364831,20.7866706 C30.2372296,18.9882312 31.5072909,15.9124031 34.055555,15.9124031 L43.7519848,15.9124031 L43.7519848,0 L14.2800486,0 C6.39101379,0 0,6.39427035 0,14.2833052 L0,43.8415404 L15.9083324,43.8415404 L15.9083324,34.0571833 C15.9083324,31.513804 18.9857887,30.2404861 20.7850423,32.0389255 L66.3362807,77.5885356 C70.5861013,81.8407987 67.5737763,89.1118999 61.5572678,89.1118999 L22.0795279,89.1118999 C18.6682734,89.1118999 15.9083324,86.3503306 15.9083324,82.943961 L15.9083324,73.0537654 L23.5938318,73.0537654 C27.8273696,73.0537654 31.5317152,69.855816 31.8085234,65.6271631 C32.1016145,60.9930675 28.437976,57.1413622 23.8624986,57.1413622 L0,57.1413622 L0,90.7011048 C0,98.6113074 6.40729662,105.024303 14.3207557,105.024303 L90.7116887,105.024303 C98.6170064,105.024303 105.024303,98.6170064 105.024303,90.7125028 L105.024303,14.3240123 C105.024303,6.41299562 98.6088649,0 90.6954058,0" id="Art"></path>
            </g>
          </g>
        </g>
      </g>
    </g>
  </g>
</svg>
