<svg width="44" height="44" viewBox="0 0 44 44" xmlns="http://www.w3.org/2000/svg">
  <path d="M21.709 0C9.72 0 0 9.917 0 22.151c0 9.786 6.22 18.088 14.847 21.017 1.087.204 1.482-.48 1.482-1.068 0-.524-.018-1.918-.029-3.766-6.039 1.338-7.313-2.97-7.313-2.97-.988-2.56-2.411-3.24-2.411-3.24-1.971-1.374.15-1.347.15-1.347 2.178.157 3.325 2.284 3.325 2.284 1.936 3.384 5.082 2.406 6.318 1.84.198-1.431.759-2.407 1.378-2.96-4.82-.56-9.889-2.46-9.889-10.949 0-2.417.846-4.396 2.235-5.943-.224-.56-.969-2.814.213-5.862 0 0 1.822-.596 5.97 2.27 1.731-.492 3.59-.736 5.435-.746 1.845.01 3.701.254 5.435.747 4.145-2.867 5.965-2.271 5.965-2.271 1.184 3.048.44 5.302.217 5.862 1.391 1.547 2.23 3.526 2.23 5.943 0 8.51-5.076 10.382-9.911 10.93.778.684 1.473 2.036 1.473 4.103 0 2.96-.027 5.35-.027 6.075 0 .593.392 1.283 1.493 1.067C37.206 40.23 43.42 31.935 43.42 22.15 43.421 12.367 33.696 0 21.709 0z" fill="#681032" fill-rule="nonzero"/>
</svg>