<?xml version="1.0" encoding="UTF-8"?>
<svg width="40" height="43" viewBox="0 0 40 43" xmlns="http://www.w3.org/2000/svg">
  <path d="M40 7.347c0 5.119-4.663 9.614-14.479 13.11.737 2.746 2.332 7.99 3.804 12.235.736 1.998 1.595 3.496 2.7 4.495 1.35.998 2.576 1.373 4.294 1.498.982.125 1.227.624.859 1.373-.368.75-1.963 1.623-4.663 1.623-2.208 0-4.171-.749-5.521-2.122-1.227-1.124-1.963-2.872-2.822-5.12-1.473-3.994-2.822-8.864-3.559-11.735a166.845 166.845 0 0 1-3.435 8.864c-2.945 7.242-6.749 10.488-11.411 10.488-3.19 0-5.767-1.998-5.767-5.369C0 32.193 3.681 25.7 15.337 20.956c1.964-5.494 4.295-11.986 5.522-15.607-.49 0-.859.125-1.35.25-7.607 1.748-9.693 5.244-9.693 8.115 0 1.748.859 2.872 2.209 3.871.736.5.49 1.748-1.718 1.748-3.19 0-6.013-2.248-6.013-5.494 0-4.744 3.927-9.488 14.479-11.61l1.055-.188c2.457-.437 4.927-.874 8.147-1.311C36.32-.394 40 2.728 40 7.347zm-26.012 17.48c-8.344 4.494-9.939 9.987-9.939 11.486 0 1.373.736 1.748 1.595 1.623 1.963-.375 3.558-2.622 6.135-7.99.49-1.124 1.227-2.872 2.209-5.12zM26.994 4.1c-.982 3.246-2.822 8.615-4.908 14.233.981-.375 1.963-.749 2.945-1.248 5.89-2.248 8.589-5.494 8.589-8.74 0-3.371-2.209-4.744-6.626-4.245z" fill="#681032" fill-rule="nonzero"/>
</svg>